<svg xmlns="http://www.w3.org/2000/svg" width="512" height="512" viewBox="0 0 512 512">
  <g fill="#d4af37">
    <path d="M256 48C141.1 48 48 141.1 48 256s93.1 208 208 208 208-93.1 208-208S370.9 48 256 48zm0 32c97.2 0 176 78.8 176 176s-78.8 176-176 176S80 353.2 80 256s78.8-176 176-176z"/>
    <path d="M363.6 148.4c-8.3-8.3-21.8-8.3-30.2 0l-77.5 77.5-77.5-77.5c-8.3-8.3-21.8-8.3-30.2 0-8.3 8.3-8.3 21.8 0 30.2l77.5 77.5-77.5 77.5c-8.3 8.3-8.3 21.8 0 30.2 4.2 4.2 9.6 6.3 15.1 6.3s10.9-2.1 15.1-6.3l77.5-77.5 77.5 77.5c4.2 4.2 9.6 6.3 15.1 6.3s10.9-2.1 15.1-6.3c8.3-8.3 8.3-21.8 0-30.2l-77.5-77.5 77.5-77.5c8.3-8.3 8.3-21.9 0-30.2z"/>
  </g>
  <circle cx="256" cy="256" r="80" fill="#d4af37" opacity="0.3"/>
  <path d="M320 256c0 35.3-28.7 64-64 64s-64-28.7-64-64 28.7-64 64-64 64 28.7 64 64z" fill="#d4af37" opacity="0.7"/>
</svg> 