<?xml version="1.0" encoding="UTF-8"?>
<svg width="24px" height="24px" viewBox="0 0 24 24" version="1.1" xmlns="http://www.w3.org/2000/svg">
    <g stroke="none" stroke-width="1" fill="none" fill-rule="evenodd">
        <path d="M16.48,10.41 C16.52,10.47 16.55,10.54 16.57,10.61 C16.58,10.68 16.59,10.75 16.59,10.81 C16.59,10.95 16.56,11.08 16.51,11.18 C16.48,11.24 16.43,11.3 16.38,11.35 L15.71,12.02 L16.38,12.69 C16.51,12.82 16.59,13.01 16.59,13.19 C16.59,13.38 16.51,13.56 16.38,13.69 L15.71,14.36 L16.38,15.02 C16.51,15.16 16.59,15.34 16.59,15.53 C16.59,15.71 16.51,15.9 16.38,16.03 L15.71,16.7 L16.38,17.36 C16.51,17.5 16.59,17.68 16.59,17.87 C16.59,18.06 16.51,18.24 16.38,18.37 L13.69,21.06 C13.56,21.19 13.38,21.27 13.19,21.27 C13.01,21.27 12.82,21.19 12.69,21.06 L9.11,17.48 C9.08,17.44 9.05,17.42 9.02,17.37 L9,17.32 L4.92,13.26 L2.38,10.73 C2.25,10.6 2.17,10.41 2.17,10.23 C2.17,10.04 2.25,9.86 2.38,9.73 L5.07,7.03 C5.2,6.9 5.38,6.83 5.57,6.83 C5.76,6.83 5.94,6.9 6.07,7.03 L9.66,10.62 C9.73,10.69 9.78,10.77 9.81,10.85 C9.84,10.94 9.86,11.03 9.86,11.12 C9.86,11.21 9.84,11.3 9.81,11.38 C9.78,11.47 9.73,11.55 9.66,11.61 L9.47,11.81 L10.14,12.48 C10.24,12.58 10.31,12.71 10.35,12.85 C10.39,12.99 10.39,13.13 10.35,13.27 C10.32,13.39 10.26,13.5 10.17,13.59 L9.98,13.78 L10.64,14.44 C10.77,14.57 10.85,14.76 10.85,14.95 C10.85,15.14 10.77,15.32 10.64,15.45 L10.45,15.64 L11.12,16.31 C11.25,16.44 11.33,16.62 11.33,16.81 C11.33,17 11.25,17.19 11.12,17.32 L10.93,17.5 L12.69,19.26 L14.45,17.5 L13.79,16.84 L12.12,18.5 L11.12,17.5 L11.79,16.84 L10.12,15.17 L10.79,14.5 L12.45,16.17 L13.45,15.17 L12.79,14.5 L11.12,16.17 L10.12,15.17 L10.79,14.5 L9.12,12.84 L9.79,12.17 L11.45,13.84 L12.45,12.84 L11.79,12.17 L10.12,13.84 L9.13,12.84 L9.79,12.17 L8.12,10.51 L5.57,7.97 L3.45,10.09 L8.81,15.45 L11.88,18.51 L13.19,19.84 L14.5,18.51 L13.83,17.84 L15.5,16.17 L14.83,15.5 L13.17,17.17 L12.17,16.17 L12.83,15.5 L14.5,13.84 L13.83,13.17 L12.17,14.84 L11.17,13.84 L11.83,13.17 L13.5,11.5 L12.83,10.84 L11.17,12.5 L10.17,11.51 L10.83,10.84 L9.17,9.17 L7.07,7.07 L6.4,7.73 L9.17,10.5 L7.5,12.17 L4.74,9.4 L5.4,8.73 L3.79,7.12 L5.9,5 L7.1,6.2 L8.11,7.2 L14.4,13.5 L15.4,12.5 L9.1,6.2 L11.1,4.2 L12.87,6 L18.1,11.21 L19.5,9.81 L19.03,9.35 C18.69,9 18.69,8.44 19.03,8.1 L19.97,7.16 C20.32,6.81 20.87,6.81 21.22,7.16 L22.84,8.78 C23.19,9.13 23.19,9.68 22.84,10.03 L21.9,10.97 C21.56,11.31 21,11.31 20.66,10.97 L20.19,10.5 L17.19,13.5 L17.09,13.4 L16.55,13.94 L17.21,14.6 L17.31,14.7 L18.21,13.8 L18.3,13.9 L17.4,14.8 L17.5,14.9 L18.41,14 L18.5,14.1 L17.6,15 L17.7,15.1 L18.6,14.2 L18.7,14.3 L17.8,15.2 L17.9,15.3 L18.8,14.4 L18.9,14.5 L17.99,15.4 L18.09,15.5 L19.06,14.53 C19.4,14.18 19.96,14.18 20.3,14.53 L21.24,15.47 C21.59,15.82 21.59,16.37 21.24,16.72 L15.62,22.34 C15.27,22.69 14.72,22.69 14.38,22.34 L13.43,21.4 C13.09,21.06 13.09,20.5 13.43,20.16 L15.5,18.09 L15.4,17.99 L13.33,20.06 C13.14,20.25 12.91,20.35 12.67,20.35 C12.42,20.35 12.19,20.25 12,20.06 L7,15.06 C6.96,15.02 6.91,15.01 6.87,14.97 L1.66,9.76 C1.46,9.57 1.36,9.33 1.36,9.09 C1.36,8.84 1.46,8.61 1.66,8.41 L4.91,5.16 C5.1,4.97 5.34,4.87 5.58,4.87 C5.82,4.87 6.06,4.97 6.25,5.16 L8.25,7.16 L10.15,5.26 C10.34,5.07 10.58,4.97 10.82,4.97 C11.06,4.97 11.3,5.07 11.49,5.26 L13.49,7.26 C13.88,7.65 13.88,8.28 13.49,8.66 L13.3,8.86 L15.3,10.86 L15.5,10.66 C15.68,10.47 15.92,10.37 16.17,10.37 C16.3,10.37 16.4,10.38 16.48,10.41 Z" fill="#d4af37" fill-rule="nonzero"></path>
    </g>
</svg> 